# xmcd
#
# Track frame offsets:
#	150
#	23798
#	44711
#	71466
#	89856
#	114188
#	136668
#	161111
#	182594
#	199513
#	218853
#
# Disc length: 3379 seconds
#
# Revision: 1
# Processed by: cddbd v1.5.1PL0 Copyright (c) Steve Scherf et al.
# Submitted via: audiograbber 1.83.01
#
DISCID=990d310b
DTITLE=Willy Michl - Ois is Blues
DYEAR=1979
DGENRE=Bayer-Blues
TTITLE0=Der 1000-Järige Eskimo
TTITLE1=Die 5 Dimensionen
TTITLE2=Der Falk
TTITLE3=Sonnenuntergang
TTITLE4=Ois is Blues
TTITLE5=Frühling
TTITLE6=Herbstlied
TTITLE7=Isarflimmern
TTITLE8=Der Teufelstanz
TTITLE9=Das Land Nepal
TTITLE10=Epilog
EXTD=Re-Release 2004
EXTT0=
EXTT1=
EXTT2=
EXTT3=
EXTT4=
EXTT5=
EXTT6=
EXTT7=
EXTT8=
EXTT9=
EXTT10=
PLAYORDER=
